<?xml version="1.0" encoding="UTF-8" standalone="no"?>
<!DOCTYPE svg PUBLIC "-//W3C//DTD SVG 1.1//EN"
 "http://www.w3.org/Graphics/SVG/1.1/DTD/svg11.dtd">
<!-- Generated by graphviz version 2.40.1 (20161225.0304)
 -->
<!-- Title: dependencies Pages: 1 -->
<svg width="571pt" height="211pt"
 viewBox="0.00 0.00 571.00 211.00" xmlns="http://www.w3.org/2000/svg" xmlns:xlink="http://www.w3.org/1999/xlink">
<g id="graph0" class="graph" transform="scale(1 1) rotate(0) translate(4 207)">
<title>dependencies</title>
<polygon fill="#ffffff" stroke="transparent" points="-4,4 -4,-207 567,-207 567,4 -4,4"/>
<text text-anchor="start" x="260.5091" y="-42.4" font-family="sans-serif" font-weight="bold" font-size="14.00" fill="#000000">Legend</text>
<polygon fill="#ffffb3" stroke="transparent" points="47.5,-10 47.5,-30 67.5,-30 67.5,-10 47.5,-10"/>
<text text-anchor="start" x="71.129" y="-15.4" font-family="sans-serif" font-size="14.00" fill="#000000"> &#160;Declarations</text>
<polygon fill="#8dd3c7" stroke="transparent" points="160.5,-10 160.5,-30 180.5,-30 180.5,-10 160.5,-10"/>
<text text-anchor="start" x="184.2251" y="-15.4" font-family="sans-serif" font-size="14.00" fill="#000000"> &#160;Module</text>
<polygon fill="#80b1d3" stroke="transparent" points="246.5,-10 246.5,-30 266.5,-30 266.5,-10 246.5,-10"/>
<text text-anchor="start" x="270.2812" y="-15.4" font-family="sans-serif" font-size="14.00" fill="#000000"> &#160;Bootstrap</text>
<polygon fill="#fdb462" stroke="transparent" points="343.5,-10 343.5,-30 363.5,-30 363.5,-10 343.5,-10"/>
<text text-anchor="start" x="367.1732" y="-15.4" font-family="sans-serif" font-size="14.00" fill="#000000"> &#160;Providers</text>
<polygon fill="#fb8072" stroke="transparent" points="439.5,-10 439.5,-30 459.5,-30 459.5,-10 439.5,-10"/>
<text text-anchor="start" x="463.2258" y="-15.4" font-family="sans-serif" font-size="14.00" fill="#000000"> &#160;Exports</text>
<g id="clust1" class="cluster">
<title>cluster_NgxBlogModule</title>
<polygon fill="none" stroke="#000000" stroke-dasharray="1,5" points="8,-70 8,-195 555,-195 555,-70 8,-70"/>
</g>
<g id="clust2" class="cluster">
<title>cluster_NgxBlogModule_declarations</title>
<polygon fill="none" stroke="#000000" points="160,-78 160,-130 547,-130 547,-78 160,-78"/>
</g>
<g id="clust9" class="cluster">
<title>cluster_NgxBlogModule_providers</title>
<polygon fill="none" stroke="#000000" points="16,-78 16,-130 152,-130 152,-78 16,-78"/>
</g>
<!-- HomeComponent -->
<g id="node1" class="node">
<title>HomeComponent</title>
<polygon fill="#ffffb3" stroke="#000000" points="538.5451,-122 423.4549,-122 423.4549,-86 538.5451,-86 538.5451,-122"/>
<text text-anchor="middle" x="481" y="-99.8" font-family="Times,serif" font-size="14.00" fill="#000000">HomeComponent</text>
</g>
<!-- NgxBlogModule -->
<g id="node4" class="node">
<title>NgxBlogModule</title>
<polygon fill="#8dd3c7" stroke="#000000" points="341.3837,-187 338.3837,-191 317.3837,-191 314.3837,-187 230.6163,-187 230.6163,-151 341.3837,-151 341.3837,-187"/>
<text text-anchor="middle" x="286" y="-164.8" font-family="Times,serif" font-size="14.00" fill="#000000">NgxBlogModule</text>
</g>
<!-- HomeComponent&#45;&gt;NgxBlogModule -->
<g id="edge1" class="edge">
<title>HomeComponent&#45;&gt;NgxBlogModule</title>
<path fill="none" stroke="#000000" d="M481,-122.1061C481,-141.3391 481,-169 481,-169 481,-169 351.6182,-169 351.6182,-169"/>
<polygon fill="#000000" stroke="#000000" points="351.6182,-165.5001 341.6182,-169 351.6182,-172.5001 351.6182,-165.5001"/>
</g>
<!-- PostsComponent -->
<g id="node2" class="node">
<title>PostsComponent</title>
<polygon fill="#ffffb3" stroke="#000000" points="405.3948,-122 294.6052,-122 294.6052,-86 405.3948,-86 405.3948,-122"/>
<text text-anchor="middle" x="350" y="-99.8" font-family="Times,serif" font-size="14.00" fill="#000000">PostsComponent</text>
</g>
<!-- PostsComponent&#45;&gt;NgxBlogModule -->
<g id="edge2" class="edge">
<title>PostsComponent&#45;&gt;NgxBlogModule</title>
<path fill="none" stroke="#000000" d="M317.9972,-122.1061C317.9972,-122.1061 317.9972,-140.991 317.9972,-140.991"/>
<polygon fill="#000000" stroke="#000000" points="314.4973,-140.9909 317.9972,-150.991 321.4973,-140.991 314.4973,-140.9909"/>
</g>
<!-- BlogComponent -->
<g id="node3" class="node">
<title>BlogComponent</title>
<polygon fill="#ffffb3" stroke="#000000" points="276.0605,-122 167.9395,-122 167.9395,-86 276.0605,-86 276.0605,-122"/>
<text text-anchor="middle" x="222" y="-99.8" font-family="Times,serif" font-size="14.00" fill="#000000">BlogComponent</text>
</g>
<!-- BlogComponent&#45;&gt;NgxBlogModule -->
<g id="edge3" class="edge">
<title>BlogComponent&#45;&gt;NgxBlogModule</title>
<path fill="none" stroke="#000000" d="M253.419,-122.1061C253.419,-122.1061 253.419,-140.991 253.419,-140.991"/>
<polygon fill="#000000" stroke="#000000" points="249.9191,-140.9909 253.419,-150.991 256.9191,-140.991 249.9191,-140.9909"/>
</g>
<!-- PostsService -->
<g id="node5" class="node">
<title>PostsService</title>
<ellipse fill="#fdb462" stroke="#000000" cx="84" cy="-104" rx="60.2672" ry="18"/>
<text text-anchor="middle" x="84" y="-99.8" font-family="Times,serif" font-size="14.00" fill="#000000">PostsService</text>
</g>
<!-- PostsService&#45;&gt;NgxBlogModule -->
<g id="edge4" class="edge">
<title>PostsService&#45;&gt;NgxBlogModule</title>
<path fill="none" stroke="#000000" d="M84,-122.1061C84,-141.3391 84,-169 84,-169 84,-169 220.5354,-169 220.5354,-169"/>
<polygon fill="#000000" stroke="#000000" points="220.5355,-172.5001 230.5354,-169 220.5354,-165.5001 220.5355,-172.5001"/>
</g>
</g>
</svg>
